<svg xmlns="http://www.w3.org/2000/svg" width="20" height="16" viewBox="0 0 20 16">
  <defs>
    <style>
      .cls-1 {
        fill: #fff;
        fill-rule: evenodd;
      }
    </style>
  </defs>
  <path id="Фигура_15" data-name="Фигура 15" class="cls-1" d="M417,63a11.628,11.628,0,0,1-.3,1.463q-1.374,6.221-2.759,12.438a2.1,2.1,0,0,1-.245.691,0.823,0.823,0,0,1-.955.389,1.9,1.9,0,0,1-.706-0.328c-1.389-.984-2.784-1.962-4.169-2.952a0.277,0.277,0,0,0-.426.029c-0.683.649-1.379,1.284-2.064,1.931a1.237,1.237,0,0,1-.931.381,0.481,0.481,0,0,1-.5-0.359q-0.644-1.917-1.3-3.83c-0.147-.434-0.3-0.865-0.44-1.3a0.391,0.391,0,0,0-.3-0.286c-1.359-.4-2.715-0.808-4.072-1.212a2.218,2.218,0,0,1-.519-0.2,0.462,0.462,0,0,1-.081-0.839,2.474,2.474,0,0,1,.8-0.427l5.553-2.048,11.99-4.416c0.032-.011.063-0.025,0.095-0.036A0.909,0.909,0,0,1,417,63ZM404.459,75.818a0.108,0.108,0,0,0,.07-0.117c0.091-.931.186-1.862,0.266-2.8a0.769,0.769,0,0,1,.283-0.566q3.909-3.352,7.8-6.719c0.164-.142.33-0.282,0.491-0.427a0.193,0.193,0,0,0,.1-0.228,0.24,0.24,0,0,0-.271-0.089,1.333,1.333,0,0,0-.537.216q-4.809,2.9-9.62,5.793a0.277,0.277,0,0,0-.143.4c0.4,1.133.782,2.271,1.171,3.407Z" transform="translate(-397 -62)"/>
</svg>
