<svg xmlns="http://www.w3.org/2000/svg" width="19.969" height="20" viewBox="0 0 19.969 20">
  <defs>
    <style>
      .cls-1 {
        fill: #fff;
        fill-rule: evenodd;
      }
    </style>
  </defs>
  <path id="Фигура_17" data-name="Фигура 17" class="cls-1" d="M520.013,60c1.343,0.024,2.686.037,4.028,0.075a6.548,6.548,0,0,1,3.308.857,4.975,4.975,0,0,1,2.4,3.518,17.953,17.953,0,0,1,.224,2.762c0.031,1.983.019,3.967,0,5.95a9.631,9.631,0,0,1-.392,3.087,5.018,5.018,0,0,1-4.033,3.5,16.13,16.13,0,0,1-2.764.225c-1.978.03-3.957,0.018-5.935,0a9.77,9.77,0,0,1-3.091-.388,5.018,5.018,0,0,1-3.513-4.022,15.808,15.808,0,0,1-.227-2.761c-0.03-1.983-.018-3.967,0-5.95a9.662,9.662,0,0,1,.392-3.087,5.02,5.02,0,0,1,4.034-3.5,18.881,18.881,0,0,1,2.764-.227c0.933-.037,1.868-0.008,2.8-0.008V60Zm8.211,9.846h-0.041c0-.788.016-1.576,0-2.363-0.02-.757-0.048-1.517-0.125-2.268a3.358,3.358,0,0,0-2.841-3.169,15.977,15.977,0,0,0-2.678-.208c-1.693-.03-3.388-0.027-5.081,0a18.327,18.327,0,0,0-2.529.174,3.262,3.262,0,0,0-2.833,2.483,5.9,5.9,0,0,0-.215,1.422c-0.043,1.807-.069,3.615-0.063,5.423,0,1.151.03,2.305,0.131,3.45a3.351,3.351,0,0,0,2.889,3.2,16.535,16.535,0,0,0,2.658.192c1.671,0.029,3.344.021,5.016,0,0.765-.009,1.532-0.051,2.293-0.126a3.66,3.66,0,0,0,1.952-.757,3.7,3.7,0,0,0,1.342-2.88C528.168,72.89,528.183,71.365,528.224,69.842Zm-3.1.165a5.133,5.133,0,1,1-5.084-5.132A5.11,5.11,0,0,1,525.129,70.006Zm-5.135,3.322A3.327,3.327,0,1,0,516.666,70,3.344,3.344,0,0,0,519.994,73.328Zm6.537-8.661a1.2,1.2,0,0,1-1.2,1.212,1.219,1.219,0,0,1-1.208-1.214,1.2,1.2,0,0,1,1.2-1.191A1.178,1.178,0,0,1,526.531,64.667Z" transform="translate(-510.031 -60)"/>
</svg>
